<svg fill="currentColor" id="Calque_1" data-name="Calque 1" xmlns="http://www.w3.org/2000/svg" viewBox="0 0 416.8 62.16"><title>logo</title><path d="M98.16,427.44V365.28H515V427.4H100C99.36,427.4,98.76,427.43,98.16,427.44ZM512.61,367.8H100.66v56.95H512.61Z" transform="translate(-98.16 -365.28)"/><path d="M387.47,400.11c3-5.24,6-10.34,8.84-15.51.7-1.27,1.47-1.85,2.88-1.61a10.65,10.65,0,0,0,1.64,0v27.08h-4.37V394l-.23-.07c-.22.35-.46.69-.66,1.05-2.05,3.56-4.15,7.1-6.11,10.72a2.19,2.19,0,0,1-2.18,1.17c-1.07.08-1.45-.47-1.89-1.25-2.21-3.93-4.47-7.84-7-11.74v16.26H374V383a24.46,24.46,0,0,1,3.11,0,1.86,1.86,0,0,1,1.06.92c2.91,5,5.78,10,8.66,15.06C387,399.36,387.21,399.69,387.47,400.11Z" transform="translate(-98.16 -365.28)"/><path d="M407.09,409.9v-27h4.58c2,0,4,0,6,0a7.9,7.9,0,0,1,6.66,12.5L424,396a8.87,8.87,0,0,1,2.81,5.41,7.71,7.71,0,0,1-7.1,8.6c-4.07.19-8.15,0-12.23,0A1.28,1.28,0,0,1,407.09,409.9Zm4.43-4.3c2.76,0,5.39.08,8,0a2.83,2.83,0,0,0,2.65-2.24,3.29,3.29,0,0,0-3-4.42c-1.82-.19-3.67-.1-5.5-.13-.7,0-1.39,0-2.12,0Zm0-11.27c2.22,0,4.33,0,6.44,0a3.46,3.46,0,0,0,3.39-3.37,3.39,3.39,0,0,0-3-3.51c-2.26-.14-4.54,0-6.88,0Z" transform="translate(-98.16 -365.28)"/><path d="M476.33,410.12c-1.76,0-3.27,0-4.76,0-.31,0-.69-.47-.89-.81q-2.78-4.76-5.5-9.55a1.44,1.44,0,0,0-1.49-.89c-1.23.06-2.47,0-3.84,0V410h-4.46V383c.39,0,.81-.08,1.23-.08H466A8,8,0,0,1,470,397.87l-.56.34Zm-16.41-22.75v7c2.23,0,4.38,0,6.53,0a3.47,3.47,0,0,0,0-6.92C464.31,387.31,462.16,387.36,459.92,387.36Z" transform="translate(-98.16 -365.28)"/><path d="M450.31,383v4.32H435.9v6.94h12.82v4.4H435.9v6.92h14.34v4.48H431.56V383Z" transform="translate(-98.16 -365.28)"/><path d="M340,410.06h-4.25V398.77H324.37v11.29H320V383h4.3v11.24h11.41V383H340Z" transform="translate(-98.16 -365.28)"/><path d="M347.1,383h4.38v1.4c0,5.08,0,10.16,0,15.24a6.08,6.08,0,0,0,12,1.49,11.23,11.23,0,0,0,.25-2.73c0-4.68,0-9.36,0-14V383h4.36a6.45,6.45,0,0,1,.08.69c0,5.32,0,10.64,0,16a10.55,10.55,0,0,1-20.7,2.79,9.44,9.44,0,0,1-.39-2.47c0-5.44,0-10.88,0-16.32C347,383.45,347.08,383.26,347.1,383Z" transform="translate(-98.16 -365.28)"/><path d="M192.26,410.06h-2.43V383a2.29,2.29,0,0,1,2.79,1c4.62,6.57,9.33,13.08,14,19.61.27.37.56.73,1.06,1.38V382.92h2.43V410a2.19,2.19,0,0,1-2.67-1c-4.67-6.63-9.43-13.21-14.15-19.8-.27-.38-.56-.75-1-1.39Z" transform="translate(-98.16 -365.28)"/><path d="M485.92,387.35H476.7V383h22.7v4.29h-9v22.76h-4.43Z" transform="translate(-98.16 -365.28)"/><path d="M150.31,397.68l7.14,12.43a15.84,15.84,0,0,1-2.46,0,1.65,1.65,0,0,1-.89-.8Q151,404,148,398.68a1.48,1.48,0,0,0-1.5-.89c-2,0-4,0-6.18,0v12.26H138V382.9c3.87,0,7.67-.2,11.45.06a7.24,7.24,0,0,1,6.57,6.45,7.47,7.47,0,0,1-4.77,7.91Zm-10-2.36h7.81c3.07,0,5.35-2.08,5.4-4.89a5.1,5.1,0,0,0-5.33-5.1c-2.32,0-4.63,0-6.95,0a8.1,8.1,0,0,0-.94.11Z" transform="translate(-98.16 -365.28)"/><path d="M245.16,396.46a13.64,13.64,0,1,1,13.54,13.66A13.66,13.66,0,0,1,245.16,396.46Zm24.8,0a11.16,11.16,0,1,0-22.32,0,11.16,11.16,0,1,0,22.32,0Z" transform="translate(-98.16 -365.28)"/><path d="M185.36,410c-2.51.25-2.51.25-3.43-1.9-.66-1.54-1.34-3.07-2-4.63a1.14,1.14,0,0,0-1.24-.84q-5.88.05-11.75,0a1.12,1.12,0,0,0-1.23.84c-.65,1.63-1.36,3.24-2.05,4.85-.88,2.06-.89,2.07-3.43,1.6L163,403.7q4.33-10,8.65-20c.24-.57.52-1,1.2-.84.43.13,1,.36,1.15.71q5.68,12.94,11.27,25.91A3.67,3.67,0,0,1,185.36,410Zm-18.13-10h11.22l-5.61-13.13Z" transform="translate(-98.16 -365.28)"/><path d="M239.51,401.45l2,1.12c-1.45,4-7.23,8.65-14.17,7.63a13.63,13.63,0,0,1-1.17-26.73,13.55,13.55,0,0,1,15.41,7.29L239.48,392a11.33,11.33,0,0,0-7.22-6.07,10.8,10.8,0,0,0-6.93.39,11.16,11.16,0,0,0,1.21,21.21C230.75,408.58,236.24,407.43,239.51,401.45Z" transform="translate(-98.16 -365.28)"/><path d="M302.73,387.62l-1.95,1.28a6.23,6.23,0,0,0-5.2-3.56,12.45,12.45,0,0,0-4.34.48,4.08,4.08,0,0,0-2.88,3.89,3.83,3.83,0,0,0,2.42,4c1.48.66,3.11,1,4.64,1.52a29.08,29.08,0,0,1,5.53,2.17,6.52,6.52,0,0,1,.79,10.39c-4.17,3.84-12.83,2.72-15.86-2.06-.19-.3-.33-.62-.53-1l2.16-1c2.16,3.58,5.5,4.25,9.25,3.74,2.87-.39,4.69-2.35,4.67-4.88a3.58,3.58,0,0,0-2.16-3.45c-1.63-.72-3.38-1.15-5.08-1.72a36.14,36.14,0,0,1-4.83-1.72c-5.17-2.63-4.11-9.46,0-11.78C293,381.84,300.35,382.34,302.73,387.62Z" transform="translate(-98.16 -365.28)"/><path d="M117.16,385.26v10h14v2.37h-14v12.43h-2.35V382.91h18.11v2.35Z" transform="translate(-98.16 -365.28)"/><path d="M280.21,410.05h-2.3V382.84c.46,0,.89,0,1.32,0s.62,0,1,.07Z" transform="translate(-98.16 -365.28)"/><path d="M228.88,417.86l-.57-1c.36-.3.67-.54,1-.81,1-1,.81-2.05-.53-2.57-.89-.34-.89-.34-.7-1.33a2.79,2.79,0,0,1,3.15,2.08C231.56,415.69,230.72,417,228.88,417.86Z" transform="translate(-98.16 -365.28)"/></svg>